<svg id="visual" viewBox="0 0 900 900" width="900" height="900" xmlns="http://www.w3.org/2000/svg" xmlns:xlink="http://www.w3.org/1999/xlink" version="1.1"><rect width="900" height="900" fill="#F7760E"></rect><g><g transform="translate(588 473)"><path d="M57.7 -33.4C68.4 -14.7 66.5 11.3 54.7 30.3C43 49.4 21.5 61.5 -1.1 62.1C-23.8 62.8 -47.5 52 -59.2 33C-70.8 14 -70.3 -13.1 -58.4 -32.5C-46.5 -51.9 -23.3 -63.5 0.1 -63.5C23.5 -63.6 46.9 -52.1 57.7 -33.4Z" fill="#f8e796"></path></g><g transform="translate(235 284)"><path d="M29.6 -17.2C35.3 -7.2 34.8 6.3 28.9 16.7C22.9 27 11.4 34.2 -0.4 34.5C-12.3 34.7 -24.5 28 -30.8 17.4C-37.1 6.9 -37.4 -7.4 -31.3 -17.7C-25.1 -28 -12.6 -34.2 -0.3 -34C12 -33.9 23.9 -27.3 29.6 -17.2Z" fill="#f8e796"></path></g><g transform="translate(466 353)"><path d="M41.2 -23.8C49.5 -9.4 49.7 9.7 41.5 24.9C33.3 40.1 16.6 51.5 -0.7 51.9C-18 52.3 -36 41.7 -44.6 26.3C-53.3 10.8 -52.6 -9.6 -43.6 -24.4C-34.6 -39.3 -17.3 -48.6 -0.4 -48.3C16.4 -48.1 32.8 -38.3 41.2 -23.8Z" fill="#f8e796"></path></g><g transform="translate(209 450)"><path d="M48.1 -27C58.2 -10.3 59.4 12.3 49.9 28.2C40.4 44.2 20.2 53.3 0.3 53.2C-19.6 53 -39.2 43.5 -48.6 27.6C-57.9 11.8 -57 -10.3 -47.3 -26.8C-37.5 -43.3 -18.7 -54.2 0.1 -54.3C19 -54.4 38 -43.6 48.1 -27Z" fill="#f8e796"></path></g><g transform="translate(726 113)"><path d="M54.3 -32.1C64.6 -13.6 63 10.9 52 29C41 47 20.5 58.5 0 58.5C-20.6 58.5 -41.1 47.1 -51.5 29.4C-61.9 11.7 -62.1 -12.1 -51.8 -30.6C-41.5 -49.1 -20.8 -62.2 0.6 -62.6C22 -63 44.1 -50.6 54.3 -32.1Z" fill="#f8e796"></path></g><g transform="translate(591 853)"><path d="M50.3 -28.6C60.7 -11.1 61.4 12.4 51.4 29.7C41.5 47.1 20.7 58.2 0.4 58C-19.9 57.8 -39.8 46.1 -49.6 29C-59.3 11.8 -58.8 -10.9 -48.8 -28.2C-38.8 -45.4 -19.4 -57.2 0.3 -57.4C20 -57.5 39.9 -46.1 50.3 -28.6Z" fill="#f8e796"></path></g><g transform="translate(620 672)"><path d="M36.9 -20.4C44.6 -8.1 45.3 9.2 38 21.3C30.6 33.5 15.3 40.4 0.3 40.2C-14.8 40.1 -29.5 32.8 -36.6 20.9C-43.6 8.9 -43 -7.8 -35.6 -20C-28.2 -32.2 -14.1 -39.9 0.3 -40.1C14.6 -40.2 29.3 -32.8 36.9 -20.4Z" fill="#f8e796"></path></g><g transform="translate(230 96)"><path d="M56.6 -33C67.8 -13.4 67.2 12.5 55.9 32C44.5 51.4 22.2 64.3 0.6 63.9C-21 63.6 -41.9 49.9 -52.7 30.9C-63.4 11.8 -63.9 -12.7 -53.4 -31.9C-43 -51 -21.5 -64.8 0.6 -65.2C22.8 -65.5 45.5 -52.5 56.6 -33Z" fill="#f8e796"></path></g><g transform="translate(889 464)"><path d="M26.6 -15.4C32.3 -5.5 33.3 7.1 28 16.3C22.8 25.5 11.4 31.2 0.5 30.9C-10.4 30.7 -20.8 24.3 -26.2 15C-31.7 5.7 -32.3 -6.6 -27.1 -16.2C-21.9 -25.8 -10.9 -32.7 -0.2 -32.6C10.5 -32.4 20.9 -25.3 26.6 -15.4Z" fill="#f8e796"></path></g><g transform="translate(281 664)"><path d="M47.4 -27.1C56.5 -11.6 55.6 9.9 46 26.4C36.4 42.8 18.2 54.2 -0.4 54.4C-19 54.7 -38.1 43.8 -46.8 27.8C-55.6 11.9 -54 -9.2 -44.5 -25C-35 -40.7 -17.5 -51.1 0.8 -51.6C19.2 -52.1 38.3 -42.6 47.4 -27.1Z" fill="#f8e796"></path></g><g transform="translate(860 761)"><path d="M49.9 -27.8C60.3 -10.9 61.1 12.5 51.3 29.2C41.4 45.9 20.7 55.9 -0.3 56.1C-21.2 56.2 -42.4 46.5 -52.1 29.9C-61.8 13.3 -60 -10.2 -49.4 -27.2C-38.8 -44.3 -19.4 -55 0.2 -55.1C19.8 -55.3 39.6 -44.8 49.9 -27.8Z" fill="#f8e796"></path></g><g transform="translate(181 849)"><path d="M52.2 -29.6C62.1 -13 60.7 10.6 50.1 28.6C39.6 46.7 19.8 59.1 0.5 58.8C-18.7 58.4 -37.4 45.4 -48.1 27.3C-58.7 9.3 -61.4 -13.8 -52 -30.1C-42.7 -46.4 -21.3 -55.8 -0.1 -55.7C21.2 -55.6 42.3 -46.1 52.2 -29.6Z" fill="#f8e796"></path></g><g transform="translate(897 90)"><path d="M33.2 -19.3C40.1 -7.1 40.9 8.5 34.4 19.9C27.8 31.2 13.9 38.4 0.5 38.1C-12.8 37.8 -25.6 30 -32.4 18.5C-39.2 6.9 -40 -8.3 -33.6 -20.1C-27.2 -32 -13.6 -40.4 -0.2 -40.3C13.1 -40.1 26.2 -31.4 33.2 -19.3Z" fill="#f8e796"></path></g><g transform="translate(655 267)"><path d="M36.3 -20.6C43.5 -8.4 43.5 8.3 36.2 21.6C28.9 34.9 14.5 44.7 0.2 44.6C-14.2 44.5 -28.3 34.5 -35.9 21C-43.5 7.5 -44.6 -9.4 -37.6 -21.5C-30.5 -33.7 -15.2 -40.9 -0.4 -40.7C14.5 -40.5 29 -32.8 36.3 -20.6Z" fill="#f8e796"></path></g><g transform="translate(440 780)"><path d="M29.5 -17.2C35.5 -6.6 35.8 7.1 29.9 17C24 27 12 33.2 0.2 33.1C-11.6 33 -23.3 26.6 -29.2 16.6C-35.1 6.6 -35.3 -6.9 -29.5 -17.4C-23.6 -27.9 -11.8 -35.3 0 -35.2C11.8 -35.2 23.5 -27.8 29.5 -17.2Z" fill="#f8e796"></path></g><g transform="translate(544 40)"><path d="M41.2 -23.5C49 -10.2 48.1 8.5 39.7 22.8C31.4 37 15.7 46.8 -0.3 47C-16.3 47.1 -32.6 37.7 -40.7 23.6C-48.9 9.5 -48.8 -9.3 -40.6 -22.8C-32.4 -36.3 -16.2 -44.6 0.2 -44.7C16.7 -44.8 33.3 -36.8 41.2 -23.5Z" fill="#f8e796"></path></g><g transform="translate(431 177)"><path d="M48.3 -28.1C57.8 -11.5 57.4 10.7 47.7 26.9C38 43 19 53.2 -0.4 53.4C-19.9 53.7 -39.7 44 -49.2 28C-58.7 12 -57.9 -10.5 -48 -27.4C-38 -44.4 -19 -55.8 0.2 -55.9C19.4 -56.1 38.8 -44.8 48.3 -28.1Z" fill="#f8e796"></path></g><g transform="translate(45 81)"><path d="M43.8 -24.3C52.7 -9.9 53.1 10.5 44.4 24.9C35.6 39.3 17.8 47.8 0.4 47.5C-17 47.3 -34.1 38.4 -42.7 24.1C-51.3 9.7 -51.5 -10.1 -43 -24.3C-34.5 -38.4 -17.2 -47 0.1 -47.1C17.5 -47.1 34.9 -38.7 43.8 -24.3Z" fill="#f8e796"></path></g><g transform="translate(39 736)"><path d="M45.6 -26C54.6 -10.7 54.4 10.3 45.2 26.1C36.1 41.9 18 52.5 0.6 52.2C-16.8 51.8 -33.7 40.5 -42.4 24.9C-51.2 9.3 -51.9 -10.5 -43.5 -25.5C-35 -40.5 -17.5 -50.7 0.4 -50.9C18.3 -51.1 36.6 -41.4 45.6 -26Z" fill="#f8e796"></path></g><g transform="translate(7 493)"><path d="M44 -24.9C53 -9.8 53.5 10.7 44.7 26.3C36 41.9 18 52.6 -0.3 52.8C-18.5 52.9 -37.1 42.5 -46.4 26.6C-55.8 10.6 -56 -10.9 -46.7 -26.2C-37.5 -41.5 -18.7 -50.5 -0.6 -50.1C17.5 -49.8 35 -40 44 -24.9Z" fill="#f8e796"></path></g><g transform="translate(45 300)"><path d="M41.1 -23.7C49.3 -9.4 49.3 9.5 41.1 23.2C32.9 36.9 16.5 45.2 0.4 45C-15.6 44.7 -31.3 35.9 -38.9 22.6C-46.5 9.3 -46.1 -8.6 -38.3 -22.6C-30.4 -36.7 -15.2 -47 0.6 -47.3C16.4 -47.7 32.8 -38 41.1 -23.7Z" fill="#f8e796"></path></g><g transform="translate(843 281)"><path d="M37.6 -21.2C44.9 -9 44.5 8.2 36.9 21.2C29.3 34.3 14.7 43.1 -0.4 43.3C-15.4 43.5 -30.8 35.1 -38.5 22C-46.2 8.9 -46.2 -8.9 -38.5 -21.3C-30.8 -33.7 -15.4 -40.6 -0.1 -40.6C15.1 -40.5 30.3 -33.3 37.6 -21.2Z" fill="#f8e796"></path></g><g transform="translate(375 516)"><path d="M54.4 -31C65.5 -12.3 65.9 13 55.1 31.3C44.2 49.7 22.1 61 0 61C-22.1 61.1 -44.3 49.7 -55.6 31.1C-66.9 12.5 -67.3 -13.3 -56.3 -32.1C-45.2 -50.9 -22.6 -62.6 -0.5 -62.3C21.7 -62.1 43.4 -49.8 54.4 -31Z" fill="#f8e796"></path></g></g></svg>